# xmcd CD database file
#
# Track frame offsets:
#	150
#	14925
#	29233
#	45240
#	64022
#	79894
#	100989
#	119253
#	139763
#	154597
#	168582
#	187961
#	203306
#
# Disc length: 2854 seconds
#
# Revision: 0
# Processed by: cddbd v1.5.2PL0 Copyright (c) Steve Scherf et al.
# Submitted via: CDex 2.23
#
DISCID=ac0b240d
DTITLE=Underhill Rose - Something Real
DYEAR=2013
DGENRE=Country
TTITLE0=Helpless Wanderer
TTITLE1=White Rose
TTITLE2=Let her Go
TTITLE3=Sublime Charm
TTITLE4=Little House
TTITLE5=Unused to You
TTITLE6=They Got My Back
TTITLE7=Something Real
TTITLE8=I Wanna Love You
TTITLE9=Never Gonna Work Out
TTITLE10=Drives Me to Drinking
TTITLE11=Bare Little Rooms
TTITLE12=The End of 27
EXTD=YEAR: 2013
EXTT0=
EXTT1=
EXTT2=
EXTT3=
EXTT4=
EXTT5=
EXTT6=
EXTT7=
EXTT8=
EXTT9=
EXTT10=
EXTT11=
EXTT12=
PLAYORDER=
